<?xml version="1.0" encoding="utf-8"?>
<!-- Generator: Adobe Illustrator 27.5.0, SVG Export Plug-In . SVG Version: 6.00 Build 0)  -->
<svg version="1.1" id="Layer_1" xmlns="http://www.w3.org/2000/svg" xmlns:xlink="http://www.w3.org/1999/xlink" x="0px" y="0px"
	 viewBox="0 0 376.076 544.849" style="enable-background:new 0 0 376.076 544.849;" xml:space="preserve">
<g>
	<g>
		<defs>
			<rect id="SVGID_1_" x="0" y="0" width="376.076" height="544.849"/>
		</defs>
		
			<linearGradient id="SVGID_00000075867350402456052640000017411270091649742980_" gradientUnits="userSpaceOnUse" x1="188.0379" y1="634.3518" x2="188.0379" y2="-65.6532">
			<stop  offset="0" style="stop-color:#479E97"/>
			<stop  offset="0.3495" style="stop-color:#3DC8A0"/>
			<stop  offset="1" style="stop-color:#299A91"/>
		</linearGradient>
		<use xlink:href="#SVGID_1_"  style="overflow:visible;fill:url(#SVGID_00000075867350402456052640000017411270091649742980_);"/>
		<clipPath id="SVGID_00000058558888409314610650000008993313060334198667_">
			<use xlink:href="#SVGID_1_"  style="overflow:visible;"/>
		</clipPath>
		<g style="opacity:0.45;clip-path:url(#SVGID_00000058558888409314610650000008993313060334198667_);">
			<g>
				<g>
					<path style="fill:#4C00E7;" d="M407.497,17.736H-31.421c-0.183,0-0.332-0.149-0.332-0.332s0.149-0.332,0.332-0.332h438.918
						c0.183,0,0.332,0.149,0.332,0.332S407.68,17.736,407.497,17.736z"/>
					<path style="fill:#4C00E7;" d="M407.497,54.054H-31.421c-0.183,0-0.332-0.149-0.332-0.332c0-0.184,0.149-0.332,0.332-0.332
						h438.918c0.183,0,0.332,0.149,0.332,0.332C407.829,53.906,407.68,54.054,407.497,54.054z"/>
					<path style="fill:#4C00E7;" d="M407.497,90.372H-31.421c-0.183,0-0.332-0.149-0.332-0.332c0-0.184,0.149-0.332,0.332-0.332
						h438.918c0.183,0,0.332,0.149,0.332,0.332C407.829,90.224,407.68,90.372,407.497,90.372z"/>
					<path style="fill:#4C00E7;" d="M407.497,126.69H-31.421c-0.183,0-0.332-0.149-0.332-0.332c0-0.184,0.149-0.332,0.332-0.332
						h438.918c0.183,0,0.332,0.149,0.332,0.332C407.829,126.542,407.68,126.69,407.497,126.69z"/>
					<path style="fill:#4C00E7;" d="M407.497,163.008H-31.421c-0.183,0-0.332-0.148-0.332-0.332c0-0.184,0.149-0.332,0.332-0.332
						h438.918c0.183,0,0.332,0.149,0.332,0.332C407.829,162.86,407.68,163.008,407.497,163.008z"/>
					<path style="fill:#4C00E7;" d="M407.497,199.327H-31.421c-0.183,0-0.332-0.148-0.332-0.332c0-0.184,0.149-0.332,0.332-0.332
						h438.918c0.183,0,0.332,0.149,0.332,0.332C407.829,199.178,407.68,199.327,407.497,199.327z"/>
					<path style="fill:#4C00E7;" d="M407.497,235.645H-31.421c-0.183,0-0.332-0.149-0.332-0.332c0-0.184,0.149-0.332,0.332-0.332
						h438.918c0.183,0,0.332,0.149,0.332,0.332C407.829,235.496,407.68,235.645,407.497,235.645z"/>
					<path style="fill:#4C00E7;" d="M407.497,271.963H-31.421c-0.183,0-0.332-0.149-0.332-0.332s0.149-0.332,0.332-0.332h438.918
						c0.183,0,0.332,0.148,0.332,0.332S407.68,271.963,407.497,271.963z"/>
					<path style="fill:#4C00E7;" d="M407.497,308.281H-31.421c-0.183,0-0.332-0.149-0.332-0.332c0-0.184,0.149-0.332,0.332-0.332
						h438.918c0.183,0,0.332,0.148,0.332,0.332C407.829,308.132,407.68,308.281,407.497,308.281z"/>
					<path style="fill:#4C00E7;" d="M407.497,344.599H-31.421c-0.183,0-0.332-0.149-0.332-0.332c0-0.184,0.149-0.332,0.332-0.332
						h438.918c0.183,0,0.332,0.148,0.332,0.332C407.829,344.45,407.68,344.599,407.497,344.599z"/>
					<path style="fill:#4C00E7;" d="M407.497,380.917H-31.421c-0.183,0-0.332-0.149-0.332-0.332c0-0.184,0.149-0.332,0.332-0.332
						h438.918c0.183,0,0.332,0.149,0.332,0.332C407.829,380.769,407.68,380.917,407.497,380.917z"/>
					<path style="fill:#4C00E7;" d="M407.497,417.235H-31.421c-0.183,0-0.332-0.148-0.332-0.332s0.149-0.332,0.332-0.332h438.918
						c0.183,0,0.332,0.149,0.332,0.332S407.68,417.235,407.497,417.235z"/>
					<path style="fill:#4C00E7;" d="M407.497,453.553H-31.421c-0.183,0-0.332-0.148-0.332-0.332s0.149-0.332,0.332-0.332h438.918
						c0.183,0,0.332,0.149,0.332,0.332S407.68,453.553,407.497,453.553z"/>
					<path style="fill:#4C00E7;" d="M407.497,489.871H-31.421c-0.183,0-0.332-0.148-0.332-0.332s0.149-0.332,0.332-0.332h438.918
						c0.183,0,0.332,0.149,0.332,0.332S407.68,489.871,407.497,489.871z"/>
					<path style="fill:#4C00E7;" d="M407.497,526.19H-31.421c-0.183,0-0.332-0.149-0.332-0.332s0.149-0.332,0.332-0.332h438.918
						c0.183,0,0.332,0.149,0.332,0.332S407.68,526.19,407.497,526.19z"/>
				</g>
				<g style="opacity:0.2;">
					<path style="fill:#7ED1E2;" d="M407.497,18.566H-31.421c-0.642,0-1.163-0.521-1.163-1.163c0-0.642,0.52-1.163,1.163-1.163
						h438.918c0.642,0,1.163,0.521,1.163,1.163C408.659,18.046,408.139,18.566,407.497,18.566z"/>
					<path style="fill:#7ED1E2;" d="M407.497,54.885H-31.421c-0.642,0-1.163-0.521-1.163-1.163c0-0.642,0.52-1.162,1.163-1.162
						h438.918c0.642,0,1.163,0.521,1.163,1.162C408.659,54.364,408.139,54.885,407.497,54.885z"/>
					<path style="fill:#7ED1E2;" d="M407.497,91.203H-31.421c-0.642,0-1.163-0.521-1.163-1.163c0-0.642,0.52-1.162,1.163-1.162
						h438.918c0.642,0,1.163,0.521,1.163,1.162C408.659,90.682,408.139,91.203,407.497,91.203z"/>
					<path style="fill:#7ED1E2;" d="M407.497,127.521H-31.421c-0.642,0-1.163-0.521-1.163-1.163c0-0.642,0.52-1.162,1.163-1.162
						h438.918c0.642,0,1.163,0.521,1.163,1.162C408.659,127,408.139,127.521,407.497,127.521z"/>
					<path style="fill:#7ED1E2;" d="M407.497,163.839H-31.421c-0.642,0-1.163-0.521-1.163-1.162c0-0.642,0.52-1.163,1.163-1.163
						h438.918c0.642,0,1.163,0.521,1.163,1.163C408.659,163.318,408.139,163.839,407.497,163.839z"/>
					<path style="fill:#7ED1E2;" d="M407.497,200.157H-31.421c-0.642,0-1.163-0.521-1.163-1.163c0-0.642,0.52-1.163,1.163-1.163
						h438.918c0.642,0,1.163,0.521,1.163,1.163C408.659,199.636,408.139,200.157,407.497,200.157z"/>
					<path style="fill:#7ED1E2;" d="M407.497,236.475H-31.421c-0.642,0-1.163-0.521-1.163-1.163c0-0.642,0.52-1.163,1.163-1.163
						h438.918c0.642,0,1.163,0.521,1.163,1.163C408.659,235.954,408.139,236.475,407.497,236.475z"/>
					<path style="fill:#7ED1E2;" d="M407.497,272.793H-31.421c-0.642,0-1.163-0.521-1.163-1.163s0.52-1.163,1.163-1.163h438.918
						c0.642,0,1.163,0.521,1.163,1.163S408.139,272.793,407.497,272.793z"/>
					<path style="fill:#7ED1E2;" d="M407.497,309.111H-31.421c-0.642,0-1.163-0.521-1.163-1.163c0-0.642,0.52-1.163,1.163-1.163
						h438.918c0.642,0,1.163,0.521,1.163,1.163C408.659,308.591,408.139,309.111,407.497,309.111z"/>
					<path style="fill:#7ED1E2;" d="M407.497,345.429H-31.421c-0.642,0-1.163-0.521-1.163-1.163c0-0.642,0.52-1.162,1.163-1.162
						h438.918c0.642,0,1.163,0.521,1.163,1.162C408.659,344.909,408.139,345.429,407.497,345.429z"/>
					<path style="fill:#7ED1E2;" d="M407.497,381.748H-31.421c-0.642,0-1.163-0.521-1.163-1.163c0-0.642,0.52-1.163,1.163-1.163
						h438.918c0.642,0,1.163,0.521,1.163,1.163C408.659,381.227,408.139,381.748,407.497,381.748z"/>
					<path style="fill:#7ED1E2;" d="M407.497,418.066H-31.421c-0.642,0-1.163-0.521-1.163-1.163c0-0.642,0.52-1.163,1.163-1.163
						h438.918c0.642,0,1.163,0.521,1.163,1.163C408.659,417.545,408.139,418.066,407.497,418.066z"/>
					<path style="fill:#7ED1E2;" d="M407.497,454.384H-31.421c-0.642,0-1.163-0.521-1.163-1.163c0-0.642,0.52-1.163,1.163-1.163
						h438.918c0.642,0,1.163,0.521,1.163,1.163C408.659,453.863,408.139,454.384,407.497,454.384z"/>
					<path style="fill:#7ED1E2;" d="M407.497,490.702H-31.421c-0.642,0-1.163-0.521-1.163-1.163s0.52-1.163,1.163-1.163h438.918
						c0.642,0,1.163,0.521,1.163,1.163S408.139,490.702,407.497,490.702z"/>
					<path style="fill:#7ED1E2;" d="M407.497,527.02H-31.421c-0.642,0-1.163-0.521-1.163-1.163c0-0.642,0.52-1.163,1.163-1.163
						h438.918c0.642,0,1.163,0.521,1.163,1.163C408.659,526.499,408.139,527.02,407.497,527.02z"/>
				</g>
				<g style="opacity:0.25;">
					<path style="fill:#64CADE;" d="M407.497,18.4H-31.421c-0.55,0-0.996-0.446-0.996-0.997c0-0.551,0.446-0.997,0.996-0.997
						h438.918c0.55,0,0.996,0.446,0.996,0.997C408.493,17.954,408.047,18.4,407.497,18.4z"/>
					<path style="fill:#64CADE;" d="M407.497,54.718H-31.421c-0.55,0-0.996-0.446-0.996-0.997c0-0.55,0.446-0.996,0.996-0.996
						h438.918c0.55,0,0.996,0.446,0.996,0.996C408.493,54.272,408.047,54.718,407.497,54.718z"/>
					<path style="fill:#64CADE;" d="M407.497,91.037H-31.421c-0.55,0-0.996-0.446-0.996-0.996c0-0.55,0.446-0.996,0.996-0.996
						h438.918c0.55,0,0.996,0.446,0.996,0.996C408.493,90.591,408.047,91.037,407.497,91.037z"/>
					<path style="fill:#64CADE;" d="M407.497,127.355H-31.421c-0.55,0-0.996-0.446-0.996-0.996c0-0.55,0.446-0.996,0.996-0.996
						h438.918c0.55,0,0.996,0.446,0.996,0.996C408.493,126.909,408.047,127.355,407.497,127.355z"/>
					<path style="fill:#64CADE;" d="M407.497,163.673H-31.421c-0.55,0-0.996-0.446-0.996-0.996c0-0.551,0.446-0.997,0.996-0.997
						h438.918c0.55,0,0.996,0.446,0.996,0.997C408.493,163.227,408.047,163.673,407.497,163.673z"/>
					<path style="fill:#64CADE;" d="M407.497,199.991H-31.421c-0.55,0-0.996-0.446-0.996-0.997c0-0.55,0.446-0.996,0.996-0.996
						h438.918c0.55,0,0.996,0.446,0.996,0.996C408.493,199.545,408.047,199.991,407.497,199.991z"/>
					<path style="fill:#64CADE;" d="M407.497,236.309H-31.421c-0.55,0-0.996-0.446-0.996-0.997c0-0.55,0.446-0.996,0.996-0.996
						h438.918c0.55,0,0.996,0.446,0.996,0.996C408.493,235.863,408.047,236.309,407.497,236.309z"/>
					<path style="fill:#64CADE;" d="M407.497,272.627H-31.421c-0.55,0-0.996-0.446-0.996-0.996s0.446-0.997,0.996-0.997h438.918
						c0.55,0,0.996,0.446,0.996,0.997S408.047,272.627,407.497,272.627z"/>
					<path style="fill:#64CADE;" d="M407.497,308.945H-31.421c-0.55,0-0.996-0.446-0.996-0.996c0-0.55,0.446-0.996,0.996-0.996
						h438.918c0.55,0,0.996,0.446,0.996,0.996C408.493,308.499,408.047,308.945,407.497,308.945z"/>
					<path style="fill:#64CADE;" d="M407.497,345.263H-31.421c-0.55,0-0.996-0.446-0.996-0.997c0-0.55,0.446-0.996,0.996-0.996
						h438.918c0.55,0,0.996,0.446,0.996,0.996C408.493,344.817,408.047,345.263,407.497,345.263z"/>
					<path style="fill:#64CADE;" d="M407.497,381.581H-31.421c-0.55,0-0.996-0.446-0.996-0.996c0-0.55,0.446-0.996,0.996-0.996
						h438.918c0.55,0,0.996,0.446,0.996,0.996C408.493,381.135,408.047,381.581,407.497,381.581z"/>
					<path style="fill:#64CADE;" d="M407.497,417.9H-31.421c-0.55,0-0.996-0.446-0.996-0.996c0-0.551,0.446-0.996,0.996-0.996
						h438.918c0.55,0,0.996,0.446,0.996,0.996C408.493,417.454,408.047,417.9,407.497,417.9z"/>
					<path style="fill:#64CADE;" d="M407.497,454.218H-31.421c-0.55,0-0.996-0.446-0.996-0.996c0-0.551,0.446-0.996,0.996-0.996
						h438.918c0.55,0,0.996,0.446,0.996,0.996C408.493,453.772,408.047,454.218,407.497,454.218z"/>
					<path style="fill:#64CADE;" d="M407.497,490.536H-31.421c-0.55,0-0.996-0.446-0.996-0.996s0.446-0.996,0.996-0.996h438.918
						c0.55,0,0.996,0.446,0.996,0.996S408.047,490.536,407.497,490.536z"/>
					<path style="fill:#64CADE;" d="M407.497,526.854H-31.421c-0.55,0-0.996-0.446-0.996-0.996c0-0.551,0.446-0.997,0.996-0.997
						h438.918c0.55,0,0.996,0.446,0.996,0.997C408.493,526.408,408.047,526.854,407.497,526.854z"/>
				</g>
				<g style="opacity:0.3;">
					<path style="fill:#00BAD5;" d="M407.497,18.234H-31.421c-0.459,0-0.83-0.372-0.83-0.83s0.372-0.83,0.83-0.83h438.918
						c0.459,0,0.83,0.372,0.83,0.83S407.955,18.234,407.497,18.234z"/>
					<path style="fill:#00BAD5;" d="M407.497,54.552H-31.421c-0.459,0-0.83-0.372-0.83-0.83c0-0.459,0.372-0.83,0.83-0.83h438.918
						c0.459,0,0.83,0.372,0.83,0.83C408.327,54.181,407.955,54.552,407.497,54.552z"/>
					<path style="fill:#00BAD5;" d="M407.497,90.871H-31.421c-0.459,0-0.83-0.372-0.83-0.83c0-0.459,0.372-0.83,0.83-0.83h438.918
						c0.459,0,0.83,0.372,0.83,0.83C408.327,90.499,407.955,90.871,407.497,90.871z"/>
					<path style="fill:#00BAD5;" d="M407.497,127.188H-31.421c-0.459,0-0.83-0.372-0.83-0.83c0-0.459,0.372-0.83,0.83-0.83h438.918
						c0.459,0,0.83,0.372,0.83,0.83C408.327,126.817,407.955,127.188,407.497,127.188z"/>
					<path style="fill:#00BAD5;" d="M407.497,163.507H-31.421c-0.459,0-0.83-0.372-0.83-0.83c0-0.459,0.372-0.83,0.83-0.83h438.918
						c0.459,0,0.83,0.372,0.83,0.83C408.327,163.135,407.955,163.507,407.497,163.507z"/>
					<path style="fill:#00BAD5;" d="M407.497,199.825H-31.421c-0.459,0-0.83-0.372-0.83-0.83c0-0.459,0.372-0.83,0.83-0.83h438.918
						c0.459,0,0.83,0.372,0.83,0.83C408.327,199.453,407.955,199.825,407.497,199.825z"/>
					<path style="fill:#00BAD5;" d="M407.497,236.143H-31.421c-0.459,0-0.83-0.372-0.83-0.83c0-0.459,0.372-0.83,0.83-0.83h438.918
						c0.459,0,0.83,0.372,0.83,0.83C408.327,235.771,407.955,236.143,407.497,236.143z"/>
					<path style="fill:#00BAD5;" d="M407.497,272.461H-31.421c-0.459,0-0.83-0.372-0.83-0.83c0-0.459,0.372-0.83,0.83-0.83h438.918
						c0.459,0,0.83,0.372,0.83,0.83C408.327,272.089,407.955,272.461,407.497,272.461z"/>
					<path style="fill:#00BAD5;" d="M407.497,308.779H-31.421c-0.459,0-0.83-0.372-0.83-0.83c0-0.459,0.372-0.83,0.83-0.83h438.918
						c0.459,0,0.83,0.372,0.83,0.83C408.327,308.408,407.955,308.779,407.497,308.779z"/>
					<path style="fill:#00BAD5;" d="M407.497,345.097H-31.421c-0.459,0-0.83-0.372-0.83-0.83c0-0.459,0.372-0.83,0.83-0.83h438.918
						c0.459,0,0.83,0.372,0.83,0.83C408.327,344.725,407.955,345.097,407.497,345.097z"/>
					<path style="fill:#00BAD5;" d="M407.497,381.415H-31.421c-0.459,0-0.83-0.372-0.83-0.83c0-0.459,0.372-0.83,0.83-0.83h438.918
						c0.459,0,0.83,0.372,0.83,0.83C408.327,381.044,407.955,381.415,407.497,381.415z"/>
					<path style="fill:#00BAD5;" d="M407.497,417.734H-31.421c-0.459,0-0.83-0.372-0.83-0.83c0-0.459,0.372-0.83,0.83-0.83h438.918
						c0.459,0,0.83,0.372,0.83,0.83C408.327,417.362,407.955,417.734,407.497,417.734z"/>
					<path style="fill:#00BAD5;" d="M407.497,454.052H-31.421c-0.459,0-0.83-0.372-0.83-0.83c0-0.459,0.372-0.83,0.83-0.83h438.918
						c0.459,0,0.83,0.372,0.83,0.83C408.327,453.68,407.955,454.052,407.497,454.052z"/>
					<path style="fill:#00BAD5;" d="M407.497,490.37H-31.421c-0.459,0-0.83-0.372-0.83-0.83s0.372-0.83,0.83-0.83h438.918
						c0.459,0,0.83,0.372,0.83,0.83S407.955,490.37,407.497,490.37z"/>
					<path style="fill:#00BAD5;" d="M407.497,526.688H-31.421c-0.459,0-0.83-0.372-0.83-0.83c0-0.459,0.372-0.83,0.83-0.83h438.918
						c0.459,0,0.83,0.372,0.83,0.83C408.327,526.316,407.955,526.688,407.497,526.688z"/>
				</g>
				<g>
					<path style="fill:#00BAD5;" d="M407.497,18.068H-31.421c-0.367,0-0.664-0.297-0.664-0.664s0.297-0.664,0.664-0.664h438.918
						c0.367,0,0.664,0.297,0.664,0.664S407.864,18.068,407.497,18.068z"/>
					<path style="fill:#00BAD5;" d="M407.497,54.386H-31.421c-0.367,0-0.664-0.297-0.664-0.664c0-0.367,0.297-0.664,0.664-0.664
						h438.918c0.367,0,0.664,0.298,0.664,0.664C408.161,54.089,407.864,54.386,407.497,54.386z"/>
					<path style="fill:#00BAD5;" d="M407.497,90.705H-31.421c-0.367,0-0.664-0.297-0.664-0.664c0-0.367,0.297-0.664,0.664-0.664
						h438.918c0.367,0,0.664,0.298,0.664,0.664C408.161,90.407,407.864,90.705,407.497,90.705z"/>
					<path style="fill:#00BAD5;" d="M407.497,127.022H-31.421c-0.367,0-0.664-0.298-0.664-0.664c0-0.367,0.297-0.664,0.664-0.664
						h438.918c0.367,0,0.664,0.298,0.664,0.664C408.161,126.725,407.864,127.022,407.497,127.022z"/>
					<path style="fill:#00BAD5;" d="M407.497,163.341H-31.421c-0.367,0-0.664-0.298-0.664-0.664c0-0.367,0.297-0.664,0.664-0.664
						h438.918c0.367,0,0.664,0.297,0.664,0.664C408.161,163.043,407.864,163.341,407.497,163.341z"/>
					<path style="fill:#00BAD5;" d="M407.497,199.659H-31.421c-0.367,0-0.664-0.297-0.664-0.664c0-0.367,0.297-0.664,0.664-0.664
						h438.918c0.367,0,0.664,0.297,0.664,0.664C408.161,199.361,407.864,199.659,407.497,199.659z"/>
					<path style="fill:#00BAD5;" d="M407.497,235.977H-31.421c-0.367,0-0.664-0.297-0.664-0.664c0-0.367,0.297-0.664,0.664-0.664
						h438.918c0.367,0,0.664,0.297,0.664,0.664C408.161,235.679,407.864,235.977,407.497,235.977z"/>
					<path style="fill:#00BAD5;" d="M407.497,272.295H-31.421c-0.367,0-0.664-0.297-0.664-0.664c0-0.367,0.297-0.664,0.664-0.664
						h438.918c0.367,0,0.664,0.297,0.664,0.664C408.161,271.998,407.864,272.295,407.497,272.295z"/>
					<path style="fill:#00BAD5;" d="M407.497,308.613H-31.421c-0.367,0-0.664-0.297-0.664-0.664c0-0.367,0.297-0.664,0.664-0.664
						h438.918c0.367,0,0.664,0.297,0.664,0.664C408.161,308.316,407.864,308.613,407.497,308.613z"/>
					<path style="fill:#00BAD5;" d="M407.497,344.931H-31.421c-0.367,0-0.664-0.297-0.664-0.664c0-0.367,0.297-0.664,0.664-0.664
						h438.918c0.367,0,0.664,0.298,0.664,0.664C408.161,344.634,407.864,344.931,407.497,344.931z"/>
					<path style="fill:#00BAD5;" d="M407.497,381.249H-31.421c-0.367,0-0.664-0.297-0.664-0.664c0-0.367,0.297-0.664,0.664-0.664
						h438.918c0.367,0,0.664,0.298,0.664,0.664C408.161,380.952,407.864,381.249,407.497,381.249z"/>
					<path style="fill:#00BAD5;" d="M407.497,417.568H-31.421c-0.367,0-0.664-0.297-0.664-0.664c0-0.367,0.297-0.664,0.664-0.664
						h438.918c0.367,0,0.664,0.297,0.664,0.664C408.161,417.27,407.864,417.568,407.497,417.568z"/>
					<path style="fill:#00BAD5;" d="M407.497,453.885H-31.421c-0.367,0-0.664-0.297-0.664-0.664c0-0.367,0.297-0.664,0.664-0.664
						h438.918c0.367,0,0.664,0.297,0.664,0.664C408.161,453.588,407.864,453.885,407.497,453.885z"/>
					<path style="fill:#00BAD5;" d="M407.497,490.204H-31.421c-0.367,0-0.664-0.297-0.664-0.664c0-0.367,0.297-0.664,0.664-0.664
						h438.918c0.367,0,0.664,0.297,0.664,0.664C408.161,489.906,407.864,490.204,407.497,490.204z"/>
					<path style="fill:#00BAD5;" d="M407.497,526.522H-31.421c-0.367,0-0.664-0.297-0.664-0.664s0.297-0.664,0.664-0.664h438.918
						c0.367,0,0.664,0.297,0.664,0.664S407.864,526.522,407.497,526.522z"/>
				</g>
				<g>
					<path style="fill:#31C1D9;" d="M407.497,17.944H-31.421c-0.298,0-0.54-0.242-0.54-0.54s0.242-0.54,0.54-0.54h438.918
						c0.298,0,0.54,0.242,0.54,0.54S407.795,17.944,407.497,17.944z"/>
					<path style="fill:#31C1D9;" d="M407.497,54.262H-31.421c-0.298,0-0.54-0.242-0.54-0.54s0.242-0.54,0.54-0.54h438.918
						c0.298,0,0.54,0.242,0.54,0.54S407.795,54.262,407.497,54.262z"/>
					<path style="fill:#31C1D9;" d="M407.497,90.58H-31.421c-0.298,0-0.54-0.242-0.54-0.54c0-0.298,0.242-0.54,0.54-0.54h438.918
						c0.298,0,0.54,0.242,0.54,0.54C408.036,90.338,407.795,90.58,407.497,90.58z"/>
					<path style="fill:#31C1D9;" d="M407.497,126.898H-31.421c-0.298,0-0.54-0.242-0.54-0.54s0.242-0.54,0.54-0.54h438.918
						c0.298,0,0.54,0.242,0.54,0.54S407.795,126.898,407.497,126.898z"/>
					<path style="fill:#31C1D9;" d="M407.497,163.216H-31.421c-0.298,0-0.54-0.242-0.54-0.54c0-0.298,0.242-0.54,0.54-0.54h438.918
						c0.298,0,0.54,0.242,0.54,0.54C408.036,162.974,407.795,163.216,407.497,163.216z"/>
					<path style="fill:#31C1D9;" d="M407.497,199.534H-31.421c-0.298,0-0.54-0.242-0.54-0.54c0-0.298,0.242-0.54,0.54-0.54h438.918
						c0.298,0,0.54,0.242,0.54,0.54C408.036,199.293,407.795,199.534,407.497,199.534z"/>
					<path style="fill:#31C1D9;" d="M407.497,235.852H-31.421c-0.298,0-0.54-0.242-0.54-0.54c0-0.298,0.242-0.54,0.54-0.54h438.918
						c0.298,0,0.54,0.242,0.54,0.54C408.036,235.611,407.795,235.852,407.497,235.852z"/>
					<path style="fill:#31C1D9;" d="M407.497,272.17H-31.421c-0.298,0-0.54-0.242-0.54-0.54s0.242-0.54,0.54-0.54h438.918
						c0.298,0,0.54,0.242,0.54,0.54S407.795,272.17,407.497,272.17z"/>
					<path style="fill:#31C1D9;" d="M407.497,308.489H-31.421c-0.298,0-0.54-0.242-0.54-0.54c0-0.298,0.242-0.54,0.54-0.54h438.918
						c0.298,0,0.54,0.242,0.54,0.54C408.036,308.247,407.795,308.489,407.497,308.489z"/>
					<path style="fill:#31C1D9;" d="M407.497,344.807H-31.421c-0.298,0-0.54-0.242-0.54-0.54c0-0.298,0.242-0.54,0.54-0.54h438.918
						c0.298,0,0.54,0.242,0.54,0.54C408.036,344.565,407.795,344.807,407.497,344.807z"/>
					<path style="fill:#31C1D9;" d="M407.497,381.125H-31.421c-0.298,0-0.54-0.242-0.54-0.54c0-0.298,0.242-0.54,0.54-0.54h438.918
						c0.298,0,0.54,0.242,0.54,0.54C408.036,380.883,407.795,381.125,407.497,381.125z"/>
					<path style="fill:#31C1D9;" d="M407.497,417.443H-31.421c-0.298,0-0.54-0.242-0.54-0.54s0.242-0.54,0.54-0.54h438.918
						c0.298,0,0.54,0.242,0.54,0.54S407.795,417.443,407.497,417.443z"/>
					<path style="fill:#31C1D9;" d="M407.497,453.761H-31.421c-0.298,0-0.54-0.242-0.54-0.54s0.242-0.54,0.54-0.54h438.918
						c0.298,0,0.54,0.242,0.54,0.54S407.795,453.761,407.497,453.761z"/>
					<path style="fill:#31C1D9;" d="M407.497,490.079H-31.421c-0.298,0-0.54-0.242-0.54-0.54c0-0.298,0.242-0.54,0.54-0.54h438.918
						c0.298,0,0.54,0.242,0.54,0.54C408.036,489.837,407.795,490.079,407.497,490.079z"/>
					<path style="fill:#31C1D9;" d="M407.497,526.397H-31.421c-0.298,0-0.54-0.242-0.54-0.54c0-0.298,0.242-0.54,0.54-0.54h438.918
						c0.298,0,0.54,0.242,0.54,0.54C408.036,526.156,407.795,526.397,407.497,526.397z"/>
				</g>
				<g>
					<path style="fill:#63CADE;" d="M407.497,17.819H-31.421c-0.229,0-0.415-0.186-0.415-0.415s0.186-0.415,0.415-0.415h438.918
						c0.229,0,0.415,0.186,0.415,0.415S407.726,17.819,407.497,17.819z"/>
					<path style="fill:#63CADE;" d="M407.497,54.137H-31.421c-0.229,0-0.415-0.186-0.415-0.415c0-0.229,0.186-0.415,0.415-0.415
						h438.918c0.229,0,0.415,0.186,0.415,0.415C407.912,53.951,407.726,54.137,407.497,54.137z"/>
					<path style="fill:#63CADE;" d="M407.497,90.455H-31.421c-0.229,0-0.415-0.186-0.415-0.415c0-0.229,0.186-0.415,0.415-0.415
						h438.918c0.229,0,0.415,0.186,0.415,0.415C407.912,90.27,407.726,90.455,407.497,90.455z"/>
					<path style="fill:#63CADE;" d="M407.497,126.773H-31.421c-0.229,0-0.415-0.186-0.415-0.415c0-0.229,0.186-0.415,0.415-0.415
						h438.918c0.229,0,0.415,0.186,0.415,0.415C407.912,126.587,407.726,126.773,407.497,126.773z"/>
					<path style="fill:#63CADE;" d="M407.497,163.092H-31.421c-0.229,0-0.415-0.186-0.415-0.415c0-0.229,0.186-0.415,0.415-0.415
						h438.918c0.229,0,0.415,0.186,0.415,0.415C407.912,162.906,407.726,163.092,407.497,163.092z"/>
					<path style="fill:#63CADE;" d="M407.497,199.41H-31.421c-0.229,0-0.415-0.186-0.415-0.415c0-0.229,0.186-0.415,0.415-0.415
						h438.918c0.229,0,0.415,0.186,0.415,0.415C407.912,199.224,407.726,199.41,407.497,199.41z"/>
					<path style="fill:#63CADE;" d="M407.497,235.728H-31.421c-0.229,0-0.415-0.186-0.415-0.415c0-0.229,0.186-0.415,0.415-0.415
						h438.918c0.229,0,0.415,0.186,0.415,0.415C407.912,235.542,407.726,235.728,407.497,235.728z"/>
					<path style="fill:#63CADE;" d="M407.497,272.046H-31.421c-0.229,0-0.415-0.186-0.415-0.415c0-0.229,0.186-0.415,0.415-0.415
						h438.918c0.229,0,0.415,0.186,0.415,0.415C407.912,271.86,407.726,272.046,407.497,272.046z"/>
					<path style="fill:#63CADE;" d="M407.497,308.364H-31.421c-0.229,0-0.415-0.186-0.415-0.415c0-0.229,0.186-0.415,0.415-0.415
						h438.918c0.229,0,0.415,0.186,0.415,0.415C407.912,308.178,407.726,308.364,407.497,308.364z"/>
					<path style="fill:#63CADE;" d="M407.497,344.682H-31.421c-0.229,0-0.415-0.186-0.415-0.415c0-0.229,0.186-0.415,0.415-0.415
						h438.918c0.229,0,0.415,0.186,0.415,0.415C407.912,344.496,407.726,344.682,407.497,344.682z"/>
					<path style="fill:#63CADE;" d="M407.497,381H-31.421c-0.229,0-0.415-0.186-0.415-0.415c0-0.229,0.186-0.415,0.415-0.415
						h438.918c0.229,0,0.415,0.186,0.415,0.415C407.912,380.814,407.726,381,407.497,381z"/>
					<path style="fill:#63CADE;" d="M407.497,417.318H-31.421c-0.229,0-0.415-0.186-0.415-0.415c0-0.229,0.186-0.415,0.415-0.415
						h438.918c0.229,0,0.415,0.186,0.415,0.415C407.912,417.133,407.726,417.318,407.497,417.318z"/>
					<path style="fill:#63CADE;" d="M407.497,453.636H-31.421c-0.229,0-0.415-0.186-0.415-0.415c0-0.229,0.186-0.415,0.415-0.415
						h438.918c0.229,0,0.415,0.186,0.415,0.415C407.912,453.45,407.726,453.636,407.497,453.636z"/>
					<path style="fill:#63CADE;" d="M407.497,489.955H-31.421c-0.229,0-0.415-0.186-0.415-0.415s0.186-0.415,0.415-0.415h438.918
						c0.229,0,0.415,0.186,0.415,0.415S407.726,489.955,407.497,489.955z"/>
					<path style="fill:#63CADE;" d="M407.497,526.273H-31.421c-0.229,0-0.415-0.186-0.415-0.415s0.186-0.415,0.415-0.415h438.918
						c0.229,0,0.415,0.186,0.415,0.415S407.726,526.273,407.497,526.273z"/>
				</g>
				<g>
					<path style="fill:#8FD6E5;" d="M407.497,17.678H-31.421c-0.151,0-0.274-0.123-0.274-0.274s0.123-0.274,0.274-0.274h438.918
						c0.151,0,0.274,0.123,0.274,0.274S407.648,17.678,407.497,17.678z"/>
					<path style="fill:#8FD6E5;" d="M407.497,53.996H-31.421c-0.151,0-0.274-0.123-0.274-0.274s0.123-0.274,0.274-0.274h438.918
						c0.151,0,0.274,0.123,0.274,0.274S407.648,53.996,407.497,53.996z"/>
					<path style="fill:#8FD6E5;" d="M407.497,90.314H-31.421c-0.151,0-0.274-0.123-0.274-0.274c0-0.151,0.123-0.274,0.274-0.274
						h438.918c0.151,0,0.274,0.123,0.274,0.274C407.771,90.192,407.648,90.314,407.497,90.314z"/>
					<path style="fill:#8FD6E5;" d="M407.497,126.632H-31.421c-0.151,0-0.274-0.123-0.274-0.274c0-0.151,0.123-0.274,0.274-0.274
						h438.918c0.151,0,0.274,0.123,0.274,0.274C407.771,126.51,407.648,126.632,407.497,126.632z"/>
					<path style="fill:#8FD6E5;" d="M407.497,162.95H-31.421c-0.151,0-0.274-0.123-0.274-0.274c0-0.152,0.123-0.274,0.274-0.274
						h438.918c0.151,0,0.274,0.123,0.274,0.274C407.771,162.828,407.648,162.95,407.497,162.95z"/>
					<path style="fill:#8FD6E5;" d="M407.497,199.269H-31.421c-0.151,0-0.274-0.123-0.274-0.274c0-0.151,0.123-0.274,0.274-0.274
						h438.918c0.151,0,0.274,0.123,0.274,0.274C407.771,199.146,407.648,199.269,407.497,199.269z"/>
					<path style="fill:#8FD6E5;" d="M407.497,235.587H-31.421c-0.151,0-0.274-0.123-0.274-0.274c0-0.151,0.123-0.274,0.274-0.274
						h438.918c0.151,0,0.274,0.123,0.274,0.274C407.771,235.464,407.648,235.587,407.497,235.587z"/>
					<path style="fill:#8FD6E5;" d="M407.497,271.905H-31.421c-0.151,0-0.274-0.123-0.274-0.274c0-0.152,0.123-0.274,0.274-0.274
						h438.918c0.151,0,0.274,0.123,0.274,0.274C407.771,271.782,407.648,271.905,407.497,271.905z"/>
					<path style="fill:#8FD6E5;" d="M407.497,308.223H-31.421c-0.151,0-0.274-0.123-0.274-0.274c0-0.152,0.123-0.274,0.274-0.274
						h438.918c0.151,0,0.274,0.123,0.274,0.274C407.771,308.1,407.648,308.223,407.497,308.223z"/>
					<path style="fill:#8FD6E5;" d="M407.497,344.541H-31.421c-0.151,0-0.274-0.123-0.274-0.274c0-0.151,0.123-0.274,0.274-0.274
						h438.918c0.151,0,0.274,0.123,0.274,0.274C407.771,344.418,407.648,344.541,407.497,344.541z"/>
					<path style="fill:#8FD6E5;" d="M407.497,380.859H-31.421c-0.151,0-0.274-0.123-0.274-0.274c0-0.151,0.123-0.274,0.274-0.274
						h438.918c0.151,0,0.274,0.123,0.274,0.274C407.771,380.736,407.648,380.859,407.497,380.859z"/>
					<path style="fill:#8FD6E5;" d="M407.497,417.177H-31.421c-0.151,0-0.274-0.123-0.274-0.274c0-0.151,0.123-0.274,0.274-0.274
						h438.918c0.151,0,0.274,0.123,0.274,0.274C407.771,417.055,407.648,417.177,407.497,417.177z"/>
					<path style="fill:#8FD6E5;" d="M407.497,453.495H-31.421c-0.151,0-0.274-0.123-0.274-0.274s0.123-0.274,0.274-0.274h438.918
						c0.151,0,0.274,0.123,0.274,0.274S407.648,453.495,407.497,453.495z"/>
					<path style="fill:#8FD6E5;" d="M407.497,489.813H-31.421c-0.151,0-0.274-0.123-0.274-0.274s0.123-0.274,0.274-0.274h438.918
						c0.151,0,0.274,0.123,0.274,0.274S407.648,489.813,407.497,489.813z"/>
					<path style="fill:#8FD6E5;" d="M407.497,526.132H-31.421c-0.151,0-0.274-0.123-0.274-0.274s0.123-0.274,0.274-0.274h438.918
						c0.151,0,0.274,0.123,0.274,0.274S407.648,526.132,407.497,526.132z"/>
				</g>
				<g>
					<path style="fill:#C3E7F0;" d="M407.497,17.512H-31.421c-0.059,0-0.108-0.048-0.108-0.108s0.049-0.108,0.108-0.108h438.918
						c0.06,0,0.108,0.048,0.108,0.108S407.556,17.512,407.497,17.512z"/>
					<path style="fill:#C3E7F0;" d="M407.497,53.83H-31.421c-0.059,0-0.108-0.048-0.108-0.108s0.049-0.108,0.108-0.108h438.918
						c0.06,0,0.108,0.048,0.108,0.108S407.556,53.83,407.497,53.83z"/>
					<path style="fill:#C3E7F0;" d="M407.497,90.148H-31.421c-0.059,0-0.108-0.048-0.108-0.108c0-0.06,0.049-0.108,0.108-0.108
						h438.918c0.06,0,0.108,0.048,0.108,0.108C407.605,90.1,407.556,90.148,407.497,90.148z"/>
					<path style="fill:#C3E7F0;" d="M407.497,126.466H-31.421c-0.059,0-0.108-0.048-0.108-0.108c0-0.06,0.049-0.108,0.108-0.108
						h438.918c0.06,0,0.108,0.048,0.108,0.108C407.605,126.418,407.556,126.466,407.497,126.466z"/>
					<path style="fill:#C3E7F0;" d="M407.497,162.784H-31.421c-0.059,0-0.108-0.048-0.108-0.108c0-0.06,0.049-0.108,0.108-0.108
						h438.918c0.06,0,0.108,0.048,0.108,0.108C407.605,162.736,407.556,162.784,407.497,162.784z"/>
					<path style="fill:#C3E7F0;" d="M407.497,199.103H-31.421c-0.059,0-0.108-0.048-0.108-0.108c0-0.06,0.049-0.108,0.108-0.108
						h438.918c0.06,0,0.108,0.048,0.108,0.108C407.605,199.054,407.556,199.103,407.497,199.103z"/>
					<path style="fill:#C3E7F0;" d="M407.497,235.42H-31.421c-0.059,0-0.108-0.048-0.108-0.108c0-0.06,0.049-0.108,0.108-0.108
						h438.918c0.06,0,0.108,0.048,0.108,0.108C407.605,235.372,407.556,235.42,407.497,235.42z"/>
					<path style="fill:#C3E7F0;" d="M407.497,271.739H-31.421c-0.059,0-0.108-0.048-0.108-0.108s0.049-0.108,0.108-0.108h438.918
						c0.06,0,0.108,0.048,0.108,0.108S407.556,271.739,407.497,271.739z"/>
					<path style="fill:#C3E7F0;" d="M407.497,308.057H-31.421c-0.059,0-0.108-0.048-0.108-0.108c0-0.06,0.049-0.108,0.108-0.108
						h438.918c0.06,0,0.108,0.048,0.108,0.108C407.605,308.009,407.556,308.057,407.497,308.057z"/>
					<path style="fill:#C3E7F0;" d="M407.497,344.375H-31.421c-0.059,0-0.108-0.048-0.108-0.108s0.049-0.108,0.108-0.108h438.918
						c0.06,0,0.108,0.048,0.108,0.108S407.556,344.375,407.497,344.375z"/>
					<path style="fill:#C3E7F0;" d="M407.497,380.693H-31.421c-0.059,0-0.108-0.048-0.108-0.108c0-0.06,0.049-0.108,0.108-0.108
						h438.918c0.06,0,0.108,0.048,0.108,0.108C407.605,380.645,407.556,380.693,407.497,380.693z"/>
					<path style="fill:#C3E7F0;" d="M407.497,417.011H-31.421c-0.059,0-0.108-0.048-0.108-0.108s0.049-0.108,0.108-0.108h438.918
						c0.06,0,0.108,0.048,0.108,0.108S407.556,417.011,407.497,417.011z"/>
					<path style="fill:#C3E7F0;" d="M407.497,453.329H-31.421c-0.059,0-0.108-0.048-0.108-0.108c0-0.06,0.049-0.108,0.108-0.108
						h438.918c0.06,0,0.108,0.048,0.108,0.108C407.605,453.281,407.556,453.329,407.497,453.329z"/>
					<path style="fill:#C3E7F0;" d="M407.497,489.647H-31.421c-0.059,0-0.108-0.048-0.108-0.108s0.049-0.108,0.108-0.108h438.918
						c0.06,0,0.108,0.048,0.108,0.108S407.556,489.647,407.497,489.647z"/>
					<path style="fill:#C3E7F0;" d="M407.497,525.966H-31.421c-0.059,0-0.108-0.048-0.108-0.108s0.049-0.108,0.108-0.108h438.918
						c0.06,0,0.108,0.048,0.108,0.108S407.556,525.966,407.497,525.966z"/>
				</g>
			</g>
			<g>
				<g>
					<path style="fill:#4C00E7;" d="M369.628,572.692c-0.184,0-0.332-0.149-0.332-0.332V-27.511c0-0.183,0.149-0.332,0.332-0.332
						c0.184,0,0.332,0.149,0.332,0.332V572.36C369.961,572.543,369.812,572.692,369.628,572.692z"/>
					<path style="fill:#4C00E7;" d="M333.31,572.692c-0.184,0-0.332-0.149-0.332-0.332V-27.511c0-0.183,0.149-0.332,0.332-0.332
						c0.184,0,0.332,0.149,0.332,0.332V572.36C333.642,572.543,333.494,572.692,333.31,572.692z"/>
					<path style="fill:#4C00E7;" d="M296.992,572.692c-0.184,0-0.332-0.149-0.332-0.332V-27.511c0-0.183,0.148-0.332,0.332-0.332
						c0.184,0,0.332,0.149,0.332,0.332V572.36C297.324,572.543,297.176,572.692,296.992,572.692z"/>
					<path style="fill:#4C00E7;" d="M260.674,572.692c-0.184,0-0.332-0.149-0.332-0.332V-27.511c0-0.183,0.148-0.332,0.332-0.332
						c0.184,0,0.332,0.149,0.332,0.332V572.36C261.006,572.543,260.858,572.692,260.674,572.692z"/>
					<path style="fill:#4C00E7;" d="M224.356,572.692c-0.184,0-0.332-0.149-0.332-0.332V-27.511c0-0.183,0.148-0.332,0.332-0.332
						c0.184,0,0.332,0.149,0.332,0.332V572.36C224.688,572.543,224.539,572.692,224.356,572.692z"/>
					<path style="fill:#4C00E7;" d="M188.038,572.692c-0.184,0-0.332-0.149-0.332-0.332V-27.511c0-0.183,0.148-0.332,0.332-0.332
						c0.184,0,0.332,0.149,0.332,0.332V572.36C188.37,572.543,188.221,572.692,188.038,572.692z"/>
					<path style="fill:#4C00E7;" d="M151.72,572.692c-0.184,0-0.332-0.149-0.332-0.332V-27.511c0-0.183,0.149-0.332,0.332-0.332
						c0.184,0,0.332,0.149,0.332,0.332V572.36C152.052,572.543,151.903,572.692,151.72,572.692z"/>
					<path style="fill:#4C00E7;" d="M115.401,572.692c-0.184,0-0.332-0.149-0.332-0.332V-27.511c0-0.183,0.149-0.332,0.332-0.332
						c0.184,0,0.332,0.149,0.332,0.332V572.36C115.734,572.543,115.585,572.692,115.401,572.692z"/>
					<path style="fill:#4C00E7;" d="M79.084,572.692c-0.184,0-0.332-0.149-0.332-0.332V-27.511c0-0.183,0.149-0.332,0.332-0.332
						c0.184,0,0.332,0.149,0.332,0.332V572.36C79.416,572.543,79.267,572.692,79.084,572.692z"/>
					<path style="fill:#4C00E7;" d="M42.765,572.692c-0.184,0-0.332-0.149-0.332-0.332V-27.511c0-0.183,0.149-0.332,0.332-0.332
						s0.332,0.149,0.332,0.332V572.36C43.097,572.543,42.949,572.692,42.765,572.692z"/>
					<path style="fill:#4C00E7;" d="M6.447,572.692c-0.183,0-0.332-0.149-0.332-0.332V-27.511c0-0.183,0.149-0.332,0.332-0.332
						c0.183,0,0.332,0.149,0.332,0.332V572.36C6.779,572.543,6.631,572.692,6.447,572.692z"/>
				</g>
				<g style="opacity:0.2;">
					<path style="fill:#7ED1E2;" d="M369.628,573.522c-0.642,0-1.163-0.521-1.163-1.162V-27.511c0-0.642,0.521-1.163,1.163-1.163
						c0.642,0,1.163,0.521,1.163,1.163V572.36C370.791,573.001,370.27,573.522,369.628,573.522z"/>
					<path style="fill:#7ED1E2;" d="M333.31,573.522c-0.642,0-1.163-0.521-1.163-1.162V-27.511c0-0.642,0.521-1.163,1.163-1.163
						c0.642,0,1.162,0.521,1.162,1.163V572.36C334.473,573.001,333.952,573.522,333.31,573.522z"/>
					<path style="fill:#7ED1E2;" d="M296.992,573.522c-0.642,0-1.163-0.521-1.163-1.162V-27.511c0-0.642,0.521-1.163,1.163-1.163
						c0.642,0,1.163,0.521,1.163,1.163V572.36C298.155,573.001,297.634,573.522,296.992,573.522z"/>
					<path style="fill:#7ED1E2;" d="M260.674,573.522c-0.642,0-1.163-0.521-1.163-1.162V-27.511c0-0.642,0.521-1.163,1.163-1.163
						c0.642,0,1.163,0.521,1.163,1.163V572.36C261.837,573.001,261.316,573.522,260.674,573.522z"/>
					<path style="fill:#7ED1E2;" d="M224.356,573.522c-0.642,0-1.163-0.521-1.163-1.162V-27.511c0-0.642,0.521-1.163,1.163-1.163
						c0.642,0,1.163,0.521,1.163,1.163V572.36C225.518,573.001,224.998,573.522,224.356,573.522z"/>
					<path style="fill:#7ED1E2;" d="M188.038,573.522c-0.642,0-1.163-0.521-1.163-1.162V-27.511c0-0.642,0.521-1.163,1.163-1.163
						c0.642,0,1.163,0.521,1.163,1.163V572.36C189.201,573.001,188.68,573.522,188.038,573.522z"/>
					<path style="fill:#7ED1E2;" d="M151.72,573.522c-0.642,0-1.163-0.521-1.163-1.162V-27.511c0-0.642,0.521-1.163,1.163-1.163
						c0.642,0,1.163,0.521,1.163,1.163V572.36C152.882,573.001,152.362,573.522,151.72,573.522z"/>
					<path style="fill:#7ED1E2;" d="M115.401,573.522c-0.642,0-1.163-0.521-1.163-1.162V-27.511c0-0.642,0.521-1.163,1.163-1.163
						c0.642,0,1.163,0.521,1.163,1.163V572.36C116.564,573.001,116.043,573.522,115.401,573.522z"/>
					<path style="fill:#7ED1E2;" d="M79.084,573.522c-0.642,0-1.163-0.521-1.163-1.162V-27.511c0-0.642,0.521-1.163,1.163-1.163
						c0.642,0,1.162,0.521,1.162,1.163V572.36C80.246,573.001,79.726,573.522,79.084,573.522z"/>
					<path style="fill:#7ED1E2;" d="M42.765,573.522c-0.642,0-1.163-0.521-1.163-1.162V-27.511c0-0.642,0.521-1.163,1.163-1.163
						c0.642,0,1.162,0.521,1.162,1.163V572.36C43.928,573.001,43.407,573.522,42.765,573.522z"/>
					<path style="fill:#7ED1E2;" d="M6.447,573.522c-0.642,0-1.163-0.521-1.163-1.162V-27.511c0-0.642,0.52-1.163,1.163-1.163
						s1.163,0.521,1.163,1.163V572.36C7.61,573.001,7.089,573.522,6.447,573.522z"/>
				</g>
				<g style="opacity:0.25;">
					<path style="fill:#64CADE;" d="M369.628,573.356c-0.55,0-0.996-0.446-0.996-0.996V-27.511c0-0.551,0.446-0.997,0.996-0.997
						c0.55,0,0.997,0.446,0.997,0.997V572.36C370.625,572.91,370.179,573.356,369.628,573.356z"/>
					<path style="fill:#64CADE;" d="M333.31,573.356c-0.551,0-0.997-0.446-0.997-0.996V-27.511c0-0.551,0.446-0.997,0.997-0.997
						c0.55,0,0.996,0.446,0.996,0.997V572.36C334.307,572.91,333.861,573.356,333.31,573.356z"/>
					<path style="fill:#64CADE;" d="M296.992,573.356c-0.55,0-0.996-0.446-0.996-0.996V-27.511c0-0.551,0.446-0.997,0.996-0.997
						c0.55,0,0.996,0.446,0.996,0.997V572.36C297.988,572.91,297.542,573.356,296.992,573.356z"/>
					<path style="fill:#64CADE;" d="M260.674,573.356c-0.55,0-0.996-0.446-0.996-0.996V-27.511c0-0.551,0.446-0.997,0.996-0.997
						c0.55,0,0.996,0.446,0.996,0.997V572.36C261.671,572.91,261.224,573.356,260.674,573.356z"/>
					<path style="fill:#64CADE;" d="M224.356,573.356c-0.55,0-0.997-0.446-0.997-0.996V-27.511c0-0.551,0.446-0.997,0.997-0.997
						c0.55,0,0.996,0.446,0.996,0.997V572.36C225.352,572.91,224.906,573.356,224.356,573.356z"/>
					<path style="fill:#64CADE;" d="M188.038,573.356c-0.55,0-0.997-0.446-0.997-0.996V-27.511c0-0.551,0.446-0.997,0.997-0.997
						c0.55,0,0.996,0.446,0.996,0.997V572.36C189.034,572.91,188.588,573.356,188.038,573.356z"/>
					<path style="fill:#64CADE;" d="M151.72,573.356c-0.55,0-0.996-0.446-0.996-0.996V-27.511c0-0.551,0.446-0.997,0.996-0.997
						c0.551,0,0.997,0.446,0.997,0.997V572.36C152.716,572.91,152.27,573.356,151.72,573.356z"/>
					<path style="fill:#64CADE;" d="M115.401,573.356c-0.55,0-0.996-0.446-0.996-0.996V-27.511c0-0.551,0.446-0.997,0.996-0.997
						c0.55,0,0.997,0.446,0.997,0.997V572.36C116.398,572.91,115.952,573.356,115.401,573.356z"/>
					<path style="fill:#64CADE;" d="M79.084,573.356c-0.551,0-0.997-0.446-0.997-0.996V-27.511c0-0.551,0.446-0.997,0.997-0.997
						c0.55,0,0.996,0.446,0.996,0.997V572.36C80.08,572.91,79.634,573.356,79.084,573.356z"/>
					<path style="fill:#64CADE;" d="M42.765,573.356c-0.55,0-0.996-0.446-0.996-0.996V-27.511c0-0.551,0.446-0.997,0.996-0.997
						c0.55,0,0.996,0.446,0.996,0.997V572.36C43.762,572.91,43.316,573.356,42.765,573.356z"/>
					<path style="fill:#64CADE;" d="M6.447,573.356c-0.55,0-0.996-0.446-0.996-0.996V-27.511c0-0.551,0.446-0.997,0.996-0.997
						s0.997,0.446,0.997,0.997V572.36C7.444,572.91,6.997,573.356,6.447,573.356z"/>
				</g>
				<g style="opacity:0.3;">
					<path style="fill:#00BAD5;" d="M369.628,573.19c-0.459,0-0.83-0.372-0.83-0.83V-27.511c0-0.459,0.372-0.83,0.83-0.83
						c0.459,0,0.83,0.372,0.83,0.83V572.36C370.459,572.818,370.087,573.19,369.628,573.19z"/>
					<path style="fill:#00BAD5;" d="M333.31,573.19c-0.459,0-0.83-0.372-0.83-0.83V-27.511c0-0.459,0.372-0.83,0.83-0.83
						c0.459,0,0.83,0.372,0.83,0.83V572.36C334.141,572.818,333.769,573.19,333.31,573.19z"/>
					<path style="fill:#00BAD5;" d="M296.992,573.19c-0.459,0-0.83-0.372-0.83-0.83V-27.511c0-0.459,0.372-0.83,0.83-0.83
						c0.459,0,0.83,0.372,0.83,0.83V572.36C297.822,572.818,297.451,573.19,296.992,573.19z"/>
					<path style="fill:#00BAD5;" d="M260.674,573.19c-0.459,0-0.83-0.372-0.83-0.83V-27.511c0-0.459,0.372-0.83,0.83-0.83
						c0.459,0,0.83,0.372,0.83,0.83V572.36C261.504,572.818,261.133,573.19,260.674,573.19z"/>
					<path style="fill:#00BAD5;" d="M224.356,573.19c-0.459,0-0.83-0.372-0.83-0.83V-27.511c0-0.459,0.372-0.83,0.83-0.83
						c0.459,0,0.83,0.372,0.83,0.83V572.36C225.186,572.818,224.814,573.19,224.356,573.19z"/>
					<path style="fill:#00BAD5;" d="M188.038,573.19c-0.459,0-0.83-0.372-0.83-0.83V-27.511c0-0.459,0.372-0.83,0.83-0.83
						c0.459,0,0.83,0.372,0.83,0.83V572.36C188.868,572.818,188.497,573.19,188.038,573.19z"/>
					<path style="fill:#00BAD5;" d="M151.72,573.19c-0.459,0-0.83-0.372-0.83-0.83V-27.511c0-0.459,0.372-0.83,0.83-0.83
						c0.459,0,0.83,0.372,0.83,0.83V572.36C152.55,572.818,152.178,573.19,151.72,573.19z"/>
					<path style="fill:#00BAD5;" d="M115.401,573.19c-0.459,0-0.83-0.372-0.83-0.83V-27.511c0-0.459,0.372-0.83,0.83-0.83
						c0.459,0,0.83,0.372,0.83,0.83V572.36C116.232,572.818,115.86,573.19,115.401,573.19z"/>
					<path style="fill:#00BAD5;" d="M79.084,573.19c-0.459,0-0.83-0.372-0.83-0.83V-27.511c0-0.459,0.372-0.83,0.83-0.83
						c0.459,0,0.83,0.372,0.83,0.83V572.36C79.914,572.818,79.542,573.19,79.084,573.19z"/>
					<path style="fill:#00BAD5;" d="M42.765,573.19c-0.459,0-0.83-0.372-0.83-0.83V-27.511c0-0.459,0.372-0.83,0.83-0.83
						c0.459,0,0.83,0.372,0.83,0.83V572.36C43.596,572.818,43.224,573.19,42.765,573.19z"/>
					<path style="fill:#00BAD5;" d="M6.447,573.19c-0.459,0-0.83-0.372-0.83-0.83V-27.511c0-0.459,0.372-0.83,0.83-0.83
						c0.459,0,0.83,0.372,0.83,0.83V572.36C7.278,572.818,6.906,573.19,6.447,573.19z"/>
				</g>
				<g>
					<path style="fill:#00BAD5;" d="M369.628,573.024c-0.367,0-0.664-0.297-0.664-0.664V-27.511c0-0.367,0.297-0.664,0.664-0.664
						c0.367,0,0.664,0.297,0.664,0.664V572.36C370.293,572.726,369.995,573.024,369.628,573.024z"/>
					<path style="fill:#00BAD5;" d="M333.31,573.024c-0.367,0-0.664-0.297-0.664-0.664V-27.511c0-0.367,0.297-0.664,0.664-0.664
						c0.367,0,0.664,0.297,0.664,0.664V572.36C333.974,572.726,333.677,573.024,333.31,573.024z"/>
					<path style="fill:#00BAD5;" d="M296.992,573.024c-0.367,0-0.664-0.297-0.664-0.664V-27.511c0-0.367,0.297-0.664,0.664-0.664
						c0.367,0,0.664,0.297,0.664,0.664V572.36C297.656,572.726,297.359,573.024,296.992,573.024z"/>
					<path style="fill:#00BAD5;" d="M260.674,573.024c-0.367,0-0.664-0.297-0.664-0.664V-27.511c0-0.367,0.297-0.664,0.664-0.664
						c0.367,0,0.664,0.297,0.664,0.664V572.36C261.338,572.726,261.041,573.024,260.674,573.024z"/>
					<path style="fill:#00BAD5;" d="M224.356,573.024c-0.367,0-0.664-0.297-0.664-0.664V-27.511c0-0.367,0.297-0.664,0.664-0.664
						s0.664,0.297,0.664,0.664V572.36C225.02,572.726,224.723,573.024,224.356,573.024z"/>
					<path style="fill:#00BAD5;" d="M188.038,573.024c-0.367,0-0.664-0.297-0.664-0.664V-27.511c0-0.367,0.298-0.664,0.664-0.664
						c0.367,0,0.664,0.297,0.664,0.664V572.36C188.702,572.726,188.405,573.024,188.038,573.024z"/>
					<path style="fill:#00BAD5;" d="M151.72,573.024c-0.367,0-0.664-0.297-0.664-0.664V-27.511c0-0.367,0.297-0.664,0.664-0.664
						s0.664,0.297,0.664,0.664V572.36C152.384,572.726,152.087,573.024,151.72,573.024z"/>
					<path style="fill:#00BAD5;" d="M115.401,573.024c-0.367,0-0.664-0.297-0.664-0.664V-27.511c0-0.367,0.297-0.664,0.664-0.664
						c0.367,0,0.664,0.297,0.664,0.664V572.36C116.066,572.726,115.768,573.024,115.401,573.024z"/>
					<path style="fill:#00BAD5;" d="M79.084,573.024c-0.367,0-0.664-0.297-0.664-0.664V-27.511c0-0.367,0.297-0.664,0.664-0.664
						c0.367,0,0.664,0.297,0.664,0.664V572.36C79.748,572.726,79.45,573.024,79.084,573.024z"/>
					<path style="fill:#00BAD5;" d="M42.765,573.024c-0.367,0-0.664-0.297-0.664-0.664V-27.511c0-0.367,0.297-0.664,0.664-0.664
						c0.367,0,0.664,0.297,0.664,0.664V572.36C43.43,572.726,43.132,573.024,42.765,573.024z"/>
					<path style="fill:#00BAD5;" d="M6.447,573.024c-0.367,0-0.664-0.297-0.664-0.664V-27.511c0-0.367,0.297-0.664,0.664-0.664
						c0.367,0,0.664,0.297,0.664,0.664V572.36C7.111,572.726,6.814,573.024,6.447,573.024z"/>
				</g>
				<g>
					<path style="fill:#31C1D9;" d="M369.628,572.899c-0.298,0-0.54-0.242-0.54-0.54V-27.511c0-0.298,0.242-0.54,0.54-0.54
						c0.298,0,0.54,0.242,0.54,0.54V572.36C370.168,572.658,369.927,572.899,369.628,572.899z"/>
					<path style="fill:#31C1D9;" d="M333.31,572.899c-0.298,0-0.54-0.242-0.54-0.54V-27.511c0-0.298,0.242-0.54,0.54-0.54
						c0.298,0,0.54,0.242,0.54,0.54V572.36C333.85,572.658,333.608,572.899,333.31,572.899z"/>
					<path style="fill:#31C1D9;" d="M296.992,572.899c-0.298,0-0.54-0.242-0.54-0.54V-27.511c0-0.298,0.242-0.54,0.54-0.54
						c0.298,0,0.54,0.242,0.54,0.54V572.36C297.532,572.658,297.29,572.899,296.992,572.899z"/>
					<path style="fill:#31C1D9;" d="M260.674,572.899c-0.298,0-0.54-0.242-0.54-0.54V-27.511c0-0.298,0.242-0.54,0.54-0.54
						c0.298,0,0.54,0.242,0.54,0.54V572.36C261.214,572.658,260.972,572.899,260.674,572.899z"/>
					<path style="fill:#31C1D9;" d="M224.356,572.899c-0.298,0-0.54-0.242-0.54-0.54V-27.511c0-0.298,0.242-0.54,0.54-0.54
						c0.298,0,0.54,0.242,0.54,0.54V572.36C224.896,572.658,224.654,572.899,224.356,572.899z"/>
					<path style="fill:#31C1D9;" d="M188.038,572.899c-0.298,0-0.54-0.242-0.54-0.54V-27.511c0-0.298,0.242-0.54,0.54-0.54
						s0.54,0.242,0.54,0.54V572.36C188.578,572.658,188.336,572.899,188.038,572.899z"/>
					<path style="fill:#31C1D9;" d="M151.72,572.899c-0.298,0-0.54-0.242-0.54-0.54V-27.511c0-0.298,0.242-0.54,0.54-0.54
						c0.298,0,0.54,0.242,0.54,0.54V572.36C152.26,572.658,152.018,572.899,151.72,572.899z"/>
					<path style="fill:#31C1D9;" d="M115.401,572.899c-0.298,0-0.54-0.242-0.54-0.54V-27.511c0-0.298,0.242-0.54,0.54-0.54
						c0.298,0,0.54,0.242,0.54,0.54V572.36C115.941,572.658,115.7,572.899,115.401,572.899z"/>
					<path style="fill:#31C1D9;" d="M79.084,572.899c-0.298,0-0.54-0.242-0.54-0.54V-27.511c0-0.298,0.242-0.54,0.54-0.54
						c0.298,0,0.54,0.242,0.54,0.54V572.36C79.623,572.658,79.382,572.899,79.084,572.899z"/>
					<path style="fill:#31C1D9;" d="M42.765,572.899c-0.298,0-0.54-0.242-0.54-0.54V-27.511c0-0.298,0.242-0.54,0.54-0.54
						s0.54,0.242,0.54,0.54V572.36C43.305,572.658,43.063,572.899,42.765,572.899z"/>
					<path style="fill:#31C1D9;" d="M6.447,572.899c-0.298,0-0.54-0.242-0.54-0.54V-27.511c0-0.298,0.242-0.54,0.54-0.54
						s0.54,0.242,0.54,0.54V572.36C6.987,572.658,6.745,572.899,6.447,572.899z"/>
				</g>
				<g>
					<path style="fill:#63CADE;" d="M369.628,572.775c-0.229,0-0.415-0.186-0.415-0.415V-27.511c0-0.229,0.186-0.415,0.415-0.415
						c0.229,0,0.415,0.186,0.415,0.415V572.36C370.044,572.589,369.858,572.775,369.628,572.775z"/>
					<path style="fill:#63CADE;" d="M333.31,572.775c-0.229,0-0.415-0.186-0.415-0.415V-27.511c0-0.229,0.186-0.415,0.415-0.415
						c0.229,0,0.415,0.186,0.415,0.415V572.36C333.725,572.589,333.539,572.775,333.31,572.775z"/>
					<path style="fill:#63CADE;" d="M296.992,572.775c-0.229,0-0.415-0.186-0.415-0.415V-27.511c0-0.229,0.186-0.415,0.415-0.415
						c0.229,0,0.415,0.186,0.415,0.415V572.36C297.407,572.589,297.221,572.775,296.992,572.775z"/>
					<path style="fill:#63CADE;" d="M260.674,572.775c-0.229,0-0.415-0.186-0.415-0.415V-27.511c0-0.229,0.186-0.415,0.415-0.415
						c0.229,0,0.415,0.186,0.415,0.415V572.36C261.089,572.589,260.903,572.775,260.674,572.775z"/>
					<path style="fill:#63CADE;" d="M224.356,572.775c-0.229,0-0.415-0.186-0.415-0.415V-27.511c0-0.229,0.186-0.415,0.415-0.415
						c0.229,0,0.415,0.186,0.415,0.415V572.36C224.771,572.589,224.585,572.775,224.356,572.775z"/>
					<path style="fill:#63CADE;" d="M188.038,572.775c-0.229,0-0.415-0.186-0.415-0.415V-27.511c0-0.229,0.186-0.415,0.415-0.415
						c0.229,0,0.415,0.186,0.415,0.415V572.36C188.453,572.589,188.267,572.775,188.038,572.775z"/>
					<path style="fill:#63CADE;" d="M151.72,572.775c-0.229,0-0.415-0.186-0.415-0.415V-27.511c0-0.229,0.186-0.415,0.415-0.415
						c0.229,0,0.415,0.186,0.415,0.415V572.36C152.135,572.589,151.949,572.775,151.72,572.775z"/>
					<path style="fill:#63CADE;" d="M115.401,572.775c-0.229,0-0.415-0.186-0.415-0.415V-27.511c0-0.229,0.186-0.415,0.415-0.415
						c0.229,0,0.415,0.186,0.415,0.415V572.36C115.817,572.589,115.631,572.775,115.401,572.775z"/>
					<path style="fill:#63CADE;" d="M79.084,572.775c-0.229,0-0.415-0.186-0.415-0.415V-27.511c0-0.229,0.186-0.415,0.415-0.415
						c0.229,0,0.415,0.186,0.415,0.415V572.36C79.499,572.589,79.313,572.775,79.084,572.775z"/>
					<path style="fill:#63CADE;" d="M42.765,572.775c-0.229,0-0.415-0.186-0.415-0.415V-27.511c0-0.229,0.186-0.415,0.415-0.415
						c0.229,0,0.415,0.186,0.415,0.415V572.36C43.181,572.589,42.995,572.775,42.765,572.775z"/>
					<path style="fill:#63CADE;" d="M6.447,572.775c-0.229,0-0.415-0.186-0.415-0.415V-27.511c0-0.229,0.186-0.415,0.415-0.415
						c0.229,0,0.415,0.186,0.415,0.415V572.36C6.862,572.589,6.676,572.775,6.447,572.775z"/>
				</g>
				<g>
					<path style="fill:#8FD6E5;" d="M369.628,572.634c-0.151,0-0.274-0.123-0.274-0.274V-27.511c0-0.152,0.123-0.274,0.274-0.274
						c0.152,0,0.274,0.123,0.274,0.274V572.36C369.902,572.511,369.78,572.634,369.628,572.634z"/>
					<path style="fill:#8FD6E5;" d="M333.31,572.634c-0.152,0-0.274-0.123-0.274-0.274V-27.511c0-0.152,0.123-0.274,0.274-0.274
						c0.151,0,0.274,0.123,0.274,0.274V572.36C333.584,572.511,333.462,572.634,333.31,572.634z"/>
					<path style="fill:#8FD6E5;" d="M296.992,572.634c-0.151,0-0.274-0.123-0.274-0.274V-27.511c0-0.152,0.123-0.274,0.274-0.274
						c0.151,0,0.274,0.123,0.274,0.274V572.36C297.266,572.511,297.143,572.634,296.992,572.634z"/>
					<path style="fill:#8FD6E5;" d="M260.674,572.634c-0.151,0-0.274-0.123-0.274-0.274V-27.511c0-0.152,0.123-0.274,0.274-0.274
						c0.151,0,0.274,0.123,0.274,0.274V572.36C260.948,572.511,260.826,572.634,260.674,572.634z"/>
					<path style="fill:#8FD6E5;" d="M224.356,572.634c-0.152,0-0.274-0.123-0.274-0.274V-27.511c0-0.152,0.123-0.274,0.274-0.274
						c0.151,0,0.274,0.123,0.274,0.274V572.36C224.63,572.511,224.507,572.634,224.356,572.634z"/>
					<path style="fill:#8FD6E5;" d="M188.038,572.634c-0.152,0-0.274-0.123-0.274-0.274V-27.511c0-0.152,0.123-0.274,0.274-0.274
						s0.274,0.123,0.274,0.274V572.36C188.312,572.511,188.189,572.634,188.038,572.634z"/>
					<path style="fill:#8FD6E5;" d="M151.72,572.634c-0.151,0-0.274-0.123-0.274-0.274V-27.511c0-0.152,0.123-0.274,0.274-0.274
						c0.152,0,0.274,0.123,0.274,0.274V572.36C151.994,572.511,151.871,572.634,151.72,572.634z"/>
					<path style="fill:#8FD6E5;" d="M115.401,572.634c-0.151,0-0.274-0.123-0.274-0.274V-27.511c0-0.152,0.123-0.274,0.274-0.274
						c0.152,0,0.274,0.123,0.274,0.274V572.36C115.676,572.511,115.553,572.634,115.401,572.634z"/>
					<path style="fill:#8FD6E5;" d="M79.084,572.634c-0.152,0-0.274-0.123-0.274-0.274V-27.511c0-0.152,0.123-0.274,0.274-0.274
						c0.151,0,0.274,0.123,0.274,0.274V572.36C79.358,572.511,79.235,572.634,79.084,572.634z"/>
					<path style="fill:#8FD6E5;" d="M42.765,572.634c-0.152,0-0.274-0.123-0.274-0.274V-27.511c0-0.152,0.123-0.274,0.274-0.274
						c0.151,0,0.274,0.123,0.274,0.274V572.36C43.04,572.511,42.917,572.634,42.765,572.634z"/>
					<path style="fill:#8FD6E5;" d="M6.447,572.634c-0.151,0-0.274-0.123-0.274-0.274V-27.511c0-0.152,0.123-0.274,0.274-0.274
						c0.151,0,0.274,0.123,0.274,0.274V572.36C6.721,572.511,6.598,572.634,6.447,572.634z"/>
				</g>
				<g>
					<path style="fill:#C3E7F0;" d="M369.628,572.468c-0.06,0-0.108-0.048-0.108-0.108V-27.511c0-0.06,0.048-0.108,0.108-0.108
						c0.06,0,0.108,0.048,0.108,0.108V572.36C369.736,572.419,369.688,572.468,369.628,572.468z"/>
					<path style="fill:#C3E7F0;" d="M333.31,572.468c-0.06,0-0.108-0.048-0.108-0.108V-27.511c0-0.06,0.048-0.108,0.108-0.108
						c0.06,0,0.108,0.048,0.108,0.108V572.36C333.418,572.419,333.37,572.468,333.31,572.468z"/>
					<path style="fill:#C3E7F0;" d="M296.992,572.468c-0.06,0-0.108-0.048-0.108-0.108V-27.511c0-0.06,0.048-0.108,0.108-0.108
						c0.06,0,0.108,0.048,0.108,0.108V572.36C297.1,572.419,297.052,572.468,296.992,572.468z"/>
					<path style="fill:#C3E7F0;" d="M260.674,572.468c-0.06,0-0.108-0.048-0.108-0.108V-27.511c0-0.06,0.048-0.108,0.108-0.108
						c0.06,0,0.108,0.048,0.108,0.108V572.36C260.782,572.419,260.734,572.468,260.674,572.468z"/>
					<path style="fill:#C3E7F0;" d="M224.356,572.468c-0.06,0-0.108-0.048-0.108-0.108V-27.511c0-0.06,0.048-0.108,0.108-0.108
						c0.06,0,0.108,0.048,0.108,0.108V572.36C224.464,572.419,224.415,572.468,224.356,572.468z"/>
					<path style="fill:#C3E7F0;" d="M188.038,572.468c-0.06,0-0.108-0.048-0.108-0.108V-27.511c0-0.06,0.048-0.108,0.108-0.108
						c0.06,0,0.108,0.048,0.108,0.108V572.36C188.146,572.419,188.098,572.468,188.038,572.468z"/>
					<path style="fill:#C3E7F0;" d="M151.72,572.468c-0.06,0-0.108-0.048-0.108-0.108V-27.511c0-0.06,0.048-0.108,0.108-0.108
						c0.06,0,0.108,0.048,0.108,0.108V572.36C151.828,572.419,151.779,572.468,151.72,572.468z"/>
					<path style="fill:#C3E7F0;" d="M115.401,572.468c-0.06,0-0.108-0.048-0.108-0.108V-27.511c0-0.06,0.048-0.108,0.108-0.108
						s0.108,0.048,0.108,0.108V572.36C115.509,572.419,115.461,572.468,115.401,572.468z"/>
					<path style="fill:#C3E7F0;" d="M79.084,572.468c-0.06,0-0.108-0.048-0.108-0.108V-27.511c0-0.06,0.048-0.108,0.108-0.108
						s0.108,0.048,0.108,0.108V572.36C79.192,572.419,79.143,572.468,79.084,572.468z"/>
					<path style="fill:#C3E7F0;" d="M42.765,572.468c-0.06,0-0.108-0.048-0.108-0.108V-27.511c0-0.06,0.048-0.108,0.108-0.108
						c0.06,0,0.108,0.048,0.108,0.108V572.36C42.873,572.419,42.825,572.468,42.765,572.468z"/>
					<path style="fill:#C3E7F0;" d="M6.447,572.468c-0.06,0-0.108-0.048-0.108-0.108V-27.511c0-0.06,0.048-0.108,0.108-0.108
						c0.06,0,0.108,0.048,0.108,0.108V572.36C6.555,572.419,6.507,572.468,6.447,572.468z"/>
				</g>
			</g>
		</g>
	</g>
	<path style="fill:#FFFFFF;" d="M286.166,286.154c-1.301-1.601-3.927-7.737-5.1-9.769c-1.172-2.032-5.549-8.89-8.91-12.094
		c-0.829-0.791-1.663-1.355-2.45-1.757c-2.431-5.577-5.384-28.014-7.046-45.077c-1.758-18.054-7.503-25.205-7.503-25.205
		c0.821-14.771-4.103-30.129-3.947-33.763c0.156-3.634,0-14.967,0-14.967c-0.86-18.601-10.707-22.196-21.414-25.635
		c-10.707-3.439-23.759-10.004-25.713-11.723c-1.954-1.719-1.954-4.533-2.032-9.144c-0.076-4.461,1.823-9.218,3.362-14.618
		c4.144-0.098,6.587-12.54,4.531-13.674c-0.742-0.409-1.298-0.441-1.712-0.299c0.651-6.329,0.378-13.456-2.664-19.005
		c-5.783-10.551-17.038-10.16-17.038-10.16h-0.987c0,0-11.254-0.391-17.038,10.16c-3.042,5.549-3.315,12.676-2.664,19.005
		c-0.414-0.141-0.971-0.11-1.712,0.299c-2.055,1.134,0.388,13.576,4.531,13.674c1.539,5.401,3.438,10.157,3.362,14.618
		c-0.078,4.611-0.078,7.425-2.032,9.144c-1.954,1.719-15.006,8.285-25.713,11.723c-10.707,3.439-20.555,7.034-21.414,25.635
		c0,0-0.156,11.333,0,14.967c0.156,3.634-4.768,18.992-3.947,33.763c0,0-5.744,7.151-7.503,25.205
		c-1.662,17.064-4.616,39.5-7.046,45.077c-0.786,0.402-1.62,0.966-2.449,1.757c-3.361,3.204-7.737,10.062-8.91,12.094
		c-1.172,2.032-3.799,8.168-5.1,9.769c-1.524,1.876-1.315,4.643,1.407,3.341c2.696-1.29,5.412-4.435,6.506-6.311
		c1.094-1.876,1.876-2.345,1.876-2.345s-1.454,12.29-1.859,16.023c-0.449,4.142-2.009,9.807,0.14,10.393
		c2.362,0.644,2.97-2.501,3.361-4.924c0.391-2.423,2.816-14.069,3.587-14.771c0.961-0.875,0.538,0.482,0.321,3.283
		c-0.073,0.948-0.391,5.705-0.86,8.753c-0.469,3.048-2.032,9.848,1.251,9.457s4.064-18.757,4.611-20.086
		c0.547-1.329,1.016-0.781,0.703,2.501c-0.099,1.038-1.798,13.364-1.172,15.865c0.625,2.501,3.048,2.11,3.83-1.094
		c0.782-3.204,1.563-16.178,2.11-17.116c0.547-0.938,0.703,0.782,0.547,3.126c-0.115,1.716-1.094,11.098,0.782,11.489
		c1.876,0.391,2.638-0.762,3.158-7.62c0.456-6.005,0.515-9.34,0.828-13.169c0.313-3.83,0.703-15.084-1.172-18.523
		c0,0,2.345-11.567,7.19-21.571c4.846-10.004,12.036-27.511,11.723-36.108c-0.26-7.139,5.732-31.953,7.951-40.344
		c0.21,2.092,0.517,4.308,0.959,6.581c2.188,11.254,5.471,24.853,5.002,33.294c-0.469,8.441-1.407,21.258-2.345,26.26
		c-0.938,5.002-6.565,24.384-6.409,48.3s3.439,52.129,5.002,58.069c1.563,5.94,2.013,11.827,1.545,15.891
		c-0.469,4.064-1.388,13.104-0.45,19.201c0,0-3.751,15.944-0.782,37.671c2.97,21.727,8.284,45.643,8.284,48.143
		c0,0.223,0,0.563,0,0.994c-0.255,1.167-0.539,2.327-0.795,3.493c-0.31,1.41-0.518,2.82-0.557,4.266
		c-0.038,1.429,0.042,2.854,0.067,4.282c0.017,1.001-0.01,2.002-0.107,2.995c-0.718,1.458-1.584,2.86-2.472,4.201
		c-1.205,1.82-2.568,3.53-3.954,5.215c-1.399,1.701-2.827,3.378-4.161,5.13c-0.663,0.871-1.303,1.76-1.903,2.676
		c-0.626,0.955-1.333,1.959-1.556,3.1c-0.206,1.052,0.093,2.115,1.095,2.615c0.2,0.1,0.412,0.163,0.625,0.191
		c-0.027,0.322-0.007,0.652,0.085,0.992c0.34,1.245,1.607,2.14,2.882,2.176c0.173,0.594,0.609,1.045,1.286,1.238
		c0.829,0.237,1.729-0.011,2.469-0.44c0.037,0.19,0.098,0.376,0.19,0.555c0.462,0.903,1.493,1.29,2.462,1.26
		c1.146-0.035,2.117-0.709,2.88-1.518c0.395-0.419,0.753-0.867,1.111-1.314c-0.15,0.603-0.164,1.232,0.06,1.819
		c0.417,1.093,1.605,1.644,2.697,1.799c1.036,0.147,2.084-0.06,3.016-0.526c0.357-0.179,0.724-0.407,1.064-0.674
		c0.638-0.314,1.219-0.769,1.716-1.262c1.103-1.095,1.864-2.458,2.437-3.89c1.27-3.171,1.679-6.616,2.342-9.945
		c0.125-0.626,0.255-1.258,0.398-1.888c0.082,0.057,0.213,0.05,0.325-0.063c1.422-1.443,1.97-3.776,2.14-5.729
		c0.208-2.395-0.156-4.784-0.6-7.132c-0.47-2.492-0.935-4.975-1.23-7.496c-0.294-2.518-0.456-5.049-0.576-7.581
		c-0.066-1.392-0.126-2.783-0.185-4.175c-0.004-0.102-0.01-0.204-0.015-0.306c0.285-3.865,0.614-7.629,0.988-10.847
		c1.563-13.443,7.034-35.795,5.627-47.362c-1.407-11.567,0.307-41.109,1.798-49.55c1.49-8.441,8.675-55.959,7.112-69.558
		l1.744-0.159l1.744,0.159c-1.563,13.599,5.622,61.117,7.112,69.558c1.49,8.441,3.204,37.983,1.798,49.55
		c-1.407,11.567,4.064,33.919,5.627,47.362c0.374,3.218,0.703,6.982,0.988,10.847c-0.005,0.102-0.011,0.204-0.015,0.306
		c-0.06,1.392-0.119,2.783-0.185,4.175c-0.12,2.532-0.282,5.063-0.576,7.581c-0.294,2.521-0.759,5.004-1.23,7.496
		c-0.443,2.348-0.808,4.737-0.6,7.132c0.17,1.953,0.718,4.287,2.14,5.729c0.112,0.113,0.242,0.12,0.325,0.063
		c0.143,0.63,0.273,1.262,0.398,1.888c0.663,3.329,1.072,6.775,2.342,9.945c0.574,1.432,1.334,2.795,2.437,3.89
		c0.497,0.493,1.078,0.949,1.716,1.262c0.34,0.267,0.706,0.495,1.064,0.674c0.932,0.466,1.979,0.673,3.016,0.526
		c1.092-0.155,2.279-0.707,2.697-1.799c0.224-0.587,0.21-1.216,0.06-1.819c0.358,0.447,0.716,0.895,1.111,1.314
		c0.763,0.809,1.734,1.483,2.88,1.518c0.969,0.03,2-0.357,2.462-1.26c0.091-0.179,0.152-0.365,0.19-0.555
		c0.74,0.429,1.64,0.676,2.469,0.44c0.677-0.193,1.114-0.644,1.286-1.238c1.275-0.036,2.543-0.931,2.882-2.176
		c0.093-0.34,0.112-0.67,0.085-0.992c0.213-0.029,0.425-0.091,0.625-0.191c1.002-0.5,1.301-1.562,1.095-2.615
		c-0.223-1.141-0.93-2.145-1.556-3.1c-0.6-0.916-1.24-1.805-1.903-2.676c-1.334-1.753-2.762-3.43-4.161-5.13
		c-1.386-1.685-2.748-3.394-3.954-5.215c-0.888-1.341-1.754-2.743-2.472-4.201c-0.096-0.994-0.124-1.994-0.107-2.995
		c0.025-1.428,0.105-2.853,0.067-4.282c-0.039-1.445-0.247-2.855-0.556-4.266c-0.256-1.167-0.539-2.327-0.795-3.493
		c0-0.431,0-0.771,0-0.994c0-2.501,5.315-26.416,8.284-48.143c2.97-21.727-0.781-37.671-0.781-37.671
		c0.938-6.096,0.018-15.137-0.45-19.201c-0.469-4.064-0.019-9.951,1.544-15.891c1.563-5.94,4.846-34.154,5.002-58.069
		s-5.471-43.298-6.409-48.3c-0.938-5.002-1.876-17.819-2.345-26.26c-0.469-8.441,2.814-22.04,5.002-33.294
		c0.442-2.274,0.749-4.489,0.959-6.581c2.219,8.391,8.211,33.205,7.951,40.344c-0.313,8.597,6.878,26.104,11.723,36.108
		s7.19,21.571,7.19,21.571c-1.876,3.439-1.485,14.693-1.172,18.523c0.313,3.83,0.372,7.164,0.828,13.169
		c0.521,6.858,1.283,8.011,3.158,7.62c1.876-0.391,0.897-9.773,0.782-11.489c-0.157-2.345,0-4.064,0.547-3.126
		c0.547,0.938,1.329,13.912,2.11,17.116c0.782,3.204,3.204,3.595,3.83,1.094c0.625-2.501-1.073-14.827-1.172-15.865
		c-0.313-3.283,0.156-3.83,0.703-2.501c0.547,1.329,1.329,19.695,4.611,20.086s1.719-6.409,1.25-9.457
		c-0.469-3.048-0.786-7.805-0.86-8.753c-0.217-2.801-0.64-4.157,0.321-3.283c0.771,0.702,3.196,12.348,3.587,14.771
		c0.391,2.423,0.999,5.568,3.361,4.924c2.149-0.586,0.589-6.251,0.14-10.393c-0.405-3.734-1.859-16.023-1.859-16.023
		s0.782,0.469,1.876,2.345c1.094,1.876,3.81,5.021,6.506,6.311C287.481,290.797,287.69,288.029,286.166,286.154z"/>
</g>
</svg>
