<svg xmlns="http://www.w3.org/2000/svg" viewBox="0 0 400 900">
  <path
    fill="#027B8B"
    stroke="#7FF7FF"
    stroke-linejoin="round"
    stroke-width="8"
    d="
    M200,30
    C165,30 145,55 145,95
    C145,125 150,145 160,160
    C162,170 160,185 158,200
    C130,215 105,225 90,245
    C75,265 72,295 72,340
    C72,380 62,425 48,465
    C40,485 30,510 30,530
    C30,548 40,560 52,560
    C62,560 68,552 75,535
    C85,510 98,475 108,450
    C112,520 118,610 122,690
    C124,740 118,790 116,835
    C115,860 125,875 145,875
    C163,875 170,860 172,840
    L185,690
    L195,520
    L205,520
    L215,690
    L228,840
    C230,860 237,875 255,875
    C275,875 285,860 284,835
    C282,790 276,740 278,690
    C282,610 288,520 292,450
    C302,475 315,510 325,535
    C332,552 338,560 348,560
    C360,560 370,548 370,530
    C370,510 360,485 352,465
    C338,425 328,380 328,340
    C328,295 325,265 310,245
    C295,225 270,215 242,200
    C240,185 238,170 240,160
    C250,145 255,125 255,95
    C255,55 235,30 200,30

    M165,95
    C165,65 180,48 200,48
    C220,48 235,65 235,95
    C235,125 225,145 200,145
    C175,145 165,125 165,95

    M135,250
    C120,280 118,330 120,390
    C122,450 130,530 138,620
    C142,665 140,735 136,820

    M265,250
    C280,280 282,330 280,390
    C278,450 270,530 262,620
    C258,665 260,735 264,820

    M172,875
    C170,820 175,760 182,690
    C188,630 190,570 190,520

    M228,875
    C230,820 225,760 218,690
    C212,630 210,570 210,520
  "
  />
</svg>
